<svg width="150" height="299" viewBox="0 0 150 299" fill="none" xmlns="http://www.w3.org/2000/svg">
<path d="M0 50.2705L50.2705 0H99.6667V50.2705L50.2705 99.6667V50.2705H0Z" fill="white"/>
<path d="M0 149.937L50.2705 99.6667H99.6667V149.937L50.2705 199.333V149.937H0Z" fill="white"/>
<path d="M0 249.604L50.2705 199.333H99.6667V249.604L50.2705 299V249.604H0Z" fill="white"/>
<path d="M99.6666 50.2705L149.937 0H199.333V50.2705L149.937 99.6667V50.2705H99.6666Z" fill="white"/>
<path d="M99.6666 149.937L149.937 99.6667H199.333V149.937L149.937 199.333V149.937H99.6666Z" fill="white"/>
<path d="M99.6666 249.604L149.937 199.333H199.333V249.604L149.937 299V249.604H99.6666Z" fill="white"/>
</svg>
